<svg xmlns="http://www.w3.org/2000/svg" viewBox="0 0 670 167.89">
<defs>
<style>.cls-1{fill:#0082ca;}.cls-2{fill:#66d7de;}</style>
</defs>
<g id="Layer_2" data-name="Layer 2">
  <g id="Layer_1-2" data-name="Layer 1">
    <rect class="cls-1" x="130" y="47.89" width="20" height="120"/>
    <path class="cls-1" d="M160,107.89h0a60,60,0,0,0,60,60h20v-20H220a40,40,0,1,1,40-40v60h20v-60a60,60,0,0,0-120,0"/>
    <path class="cls-1" d="M350,47.89h0a59.79,59.79,0,0,0-40,15.29V47.89H290v120h20v-60a40,40,0,1,1,80,0v60h20v-60a60,60,0,0,0-60-60"/>
    <path class="cls-1" d="M510.87,133.32a40,40,0,0,1-69.61-15.43h97.89a60,60,0,1,0-10.09,24.53ZM480,67.89a40,40,0,0,1,38.74,30H441.26a40,40,0,0,1,38.74-30"/>
    <path class="cls-1" d="M119.15,97.89H70v20H98.74A40.06,40.06,0,0,1,50,146.63V167a59.94,59.94,0,0,0,69.15-69.15"/>
    <path class="cls-2" d="M50,97.89H21.26A40.06,40.06,0,0,1,70,69.15V48.74A59.94,59.94,0,0,0,.85,117.89H50Z"/>
    <path class="cls-2" d="M669.15,97.89H620v20h28.74A40.06,40.06,0,0,1,600,146.63V167a59.94,59.94,0,0,0,69.15-69.15"/>
    <path class="cls-1" d="M600,97.89H571.26A40.06,40.06,0,0,1,620,69.15V48.74a59.94,59.94,0,0,0-69.15,69.15H600Z"/>
    <path class="cls-2" d="M140,27.89h0a10,10,0,1,1,10-10,10,10,0,0,1-10,10"/>
    <path class="cls-2" d="M155,17.89a15,15,0,0,1-8.3,13.4l-.89-1.78a13,13,0,0,0,0-23.24l.89-1.78a15,15,0,0,1,8.3,13.4"/>
    <path class="cls-2" d="M134.19,29.51l-.89,1.78a15,15,0,0,1,0-26.8l.89,1.78a13,13,0,0,0,0,23.24"/>
    <path class="cls-2" d="M132,34l-.9,1.8a20,20,0,0,1,0-35.78l.9,1.8A18,18,0,0,0,132,34"/>
    <path class="cls-2" d="M160,17.89A20,20,0,0,1,149,35.78l-.9-1.8a18,18,0,0,0,0-32.18L149,0A20,20,0,0,1,160,17.89"/>
  </g>
</g>
</svg>