<svg xmlns="http://www.w3.org/2000/svg" viewBox="0 0 303.03 75.31"><defs><style>.cls-1{fill:#0082ca;}.cls-2{fill:#66d7de;}</style></defs><g id="Layer_2" data-name="Layer 2"><g id="Layer_1-2" data-name="Layer 1"><path class="cls-1" d="M69.57,32.77H39.7V44.92H57.17A24.38,24.38,0,0,1,27.54,62.39V74.8a37,37,0,0,0,6.08.51A36.41,36.41,0,0,0,69.57,32.77"/><path class="cls-2" d="M30.39,32.77H12.92A24.32,24.32,0,0,1,42.54,15.3V2.89A36.46,36.46,0,0,0,0,38.84a36.86,36.86,0,0,0,.51,6.08H30.39Z"/><path class="cls-2" d="M302.51,32.77H272.64V44.92h17.47a24.38,24.38,0,0,1-29.63,17.47V74.8a37,37,0,0,0,6.08.51A36.47,36.47,0,0,0,303,38.84a35.69,35.69,0,0,0-.52-6.07"/><path class="cls-1" d="M263.33,32.77H245.86A24.32,24.32,0,0,1,275.48,15.3V2.89a36.46,36.46,0,0,0-42.54,36,35.8,35.8,0,0,0,.52,6.08h29.87Z"/><rect class="cls-1" x="81.11" y="16.37" width="6.84" height="41.02"/><path class="cls-1" d="M91.36,36.88h0A20.52,20.52,0,0,0,111.87,57.4h6.84V50.56h-6.84a13.68,13.68,0,1,1,13.68-13.68V57.4h6.84V36.88a20.52,20.52,0,0,0-41,0"/><path class="cls-1" d="M156.32,16.37h0a20.44,20.44,0,0,0-13.68,5.23V16.37H135.8v41h6.84V36.88a13.68,13.68,0,0,1,27.35,0V57.4h6.84V36.88a20.52,20.52,0,0,0-20.51-20.51"/><path class="cls-1" d="M211.31,45.58a13.67,13.67,0,0,1-23.79-5.28H221a20.24,20.24,0,0,0,.29-3.42,20.52,20.52,0,1,0-3.74,11.81ZM200.76,23.21A13.68,13.68,0,0,1,214,33.47H187.52a13.67,13.67,0,0,1,13.24-10.26"/><path class="cls-1" d="M84.53,9.53h0a3.42,3.42,0,1,1,3.41-3.41,3.42,3.42,0,0,1-3.41,3.41"/><path class="cls-1" d="M89.65,6.12a5.12,5.12,0,0,1-2.83,4.58l-.31-.61a4.44,4.44,0,0,0,0-7.95l.31-.61a5.12,5.12,0,0,1,2.83,4.59"/><path class="cls-1" d="M82.54,10.09l-.31.61a5.12,5.12,0,0,1,0-9.16l.31.6a4.44,4.44,0,0,0,0,8"/><path class="cls-1" d="M81.77,11.62l-.3.61A6.84,6.84,0,0,1,81.47,0l.3.62a6.15,6.15,0,0,0,0,11"/><path class="cls-1" d="M91.36,6.12a6.83,6.83,0,0,1-3.78,6.11l-.3-.61a6.15,6.15,0,0,0,0-11l.3-.62a6.84,6.84,0,0,1,3.78,6.12"/></g></g></svg>