<svg xmlns="http://www.w3.org/2000/svg" viewBox="0 0 407.2 102.04"><defs><style>.cls-1{fill:#0082ca;}.cls-2{fill:#66d7de;}</style></defs><g id="Layer_2" data-name="Layer 2"><g id="Layer_1-2" data-name="Layer 1"><rect class="cls-1" x="79.01" y="29.11" width="12.16" height="72.93"/><path class="cls-1" d="M97.24,65.57h0A36.47,36.47,0,0,0,133.71,102h12.15V89.88H133.71A24.31,24.31,0,1,1,158,65.57V102h12.15V65.57a36.47,36.47,0,0,0-72.93,0"/><path class="cls-1" d="M212.72,29.11h0a36.28,36.28,0,0,0-24.31,9.29V29.11H176.25V102h12.16V65.57a24.31,24.31,0,0,1,48.62,0V102h12.15V65.57a36.46,36.46,0,0,0-36.46-36.46"/><path class="cls-1" d="M310.48,81a24.31,24.31,0,0,1-42.3-9.38h59.5a37,37,0,0,0,.51-6.08,36.48,36.48,0,1,0-6.65,21ZM291.72,41.26a24.33,24.33,0,0,1,23.55,18.23H268.18a24.33,24.33,0,0,1,23.54-18.23"/><path class="cls-1" d="M72.42,59.49H42.54V71.65H60A24.32,24.32,0,0,1,30.39,89.11v12.41a36.86,36.86,0,0,0,6.08.52A36.47,36.47,0,0,0,72.93,65.57a37,37,0,0,0-.51-6.08"/><path class="cls-2" d="M30.39,59.49H12.92A24.32,24.32,0,0,1,42.54,42V29.62A36.46,36.46,0,0,0,0,65.57a37,37,0,0,0,.51,6.08H30.39Z"/><path class="cls-2" d="M406.68,59.49H376.81V71.65h17.47a24.34,24.34,0,0,1-29.63,17.46v12.41a37,37,0,0,0,6.08.52A36.47,36.47,0,0,0,407.2,65.57a35.89,35.89,0,0,0-.52-6.08"/><path class="cls-1" d="M364.65,59.49H347.19A24.32,24.32,0,0,1,376.81,42V29.62a37,37,0,0,0-6.08-.51,36.46,36.46,0,0,0-36.46,36.46,37,37,0,0,0,.51,6.08h29.87Z"/><path class="cls-1" d="M85.09,17h0a6.08,6.08,0,1,1,6.07-6.08A6.08,6.08,0,0,1,85.09,17"/><path class="cls-1" d="M94.2,10.87a9.1,9.1,0,0,1-5,8.15l-.54-1.09a7.89,7.89,0,0,0,0-14.12l.54-1.08a9.09,9.09,0,0,1,5,8.14"/><path class="cls-1" d="M81.55,17.93,81,19A9.1,9.1,0,0,1,81,2.73l.54,1.08a7.9,7.9,0,0,0,0,14.12"/><path class="cls-1" d="M80.19,20.65l-.54,1.1A12.16,12.16,0,0,1,79.65,0l.54,1.09a10.94,10.94,0,0,0,0,19.56"/><path class="cls-1" d="M97.24,10.87a12.17,12.17,0,0,1-6.71,10.88L90,20.65A10.93,10.93,0,0,0,90,1.09L90.53,0a12.14,12.14,0,0,1,6.71,10.87"/></g></g></svg>